<svg xmlns="http://www.w3.org/2000/svg" viewBox="0 0 475.69 93.84"><defs><style>.cls-1{fill:#13135f;}.cls-2{fill:#119aff;}.cls-3{fill:#0f4baa;}.cls-4{fill:#16c;}</style></defs><g id="Capa_2" data-name="Capa 2"><g id="Capa_1-2" data-name="Capa 1"><path d="M0,21.27V68.84l42.71,25V42.63ZM34.2,79.82,8.62,64.62V34.1L34.2,47.86Z"/><polygon class="cls-1" points="17.14 38.68 17.14 59.68 34.2 68.2 34.2 79.82 8.62 64.62 8.62 34.1 17.14 38.68"/><path class="cls-2" d="M42.72,0,0,21.27,42.72,42.63l42.9-21.36ZM19,20.8,42.8,9.1,66.37,21.28,42.72,34.1Z"/><polygon class="cls-3" points="68.3 38.8 68.3 59.8 51.24 68.32 51.24 79.94 76.82 64.75 76.82 34.22 68.3 38.8"/><polygon class="cls-4" points="42.82 17.11 58.63 25.48 58.63 25.48 66.37 21.28 42.8 9.11 19.02 20.8 26.84 25.18 42.82 17.11"/><path class="cls-4" d="M85.62,21.27,42.72,42.63V93.84l42.91-25Zm-8.8,43.48L51.24,79.94V48L76.82,34.22Z"/><path class="cls-4" d="M158.15,45.21c4.85-1.5,8.44-6.52,8.44-13.69,0-8.84-8.44-15.45-21.14-15.45H118.08V77.8h29.27C162.2,77.8,170,71.16,170,60.89,170,53.71,166.59,47,158.15,45.21ZM133.09,29.29h9.67c4.12,0,8.51,1.06,8.51,4.92,0,3.69-3.66,4.85-7.44,4.85H133.09Zm12.26,35.25H133.09V52.38h12.53c5.91,0,8.77,2.16,8.77,6.08C154.39,62.68,150.74,64.54,145.35,64.54Z"/><path class="cls-4" d="M191.31,54.71V16H177V55.07c0,13.06,9,22.73,21.83,22.73V63.12C194.26,63.12,191.31,59.63,191.31,54.71Z"/><path class="cls-4" d="M240.08,53.28c0,6.08-4.12,10.2-9.93,10.2s-10.1-4.12-10.1-10.2V28.49H205.73V53.28c0,14.06,10.66,24.52,24.42,24.52S254.4,67.34,254.4,53.28V28.49H240.08Z"/><path class="cls-4" d="M287.13,46.44a6.15,6.15,0,1,0,0,12.29h20.2c4.92-18.18-6.44-31.23-22.56-31.3-14.95,0-23.36,12.23-23.36,25,0,12.53,10,25.32,24.53,25.32,8.87,0,16.64-2.16,21.56-7.51L296.67,62c-1.33,1.9-6.25,3.13-9.47,3.13-15.78-.27-14.26-25.06-2-25.06,6.21,0,8.37,4.16,8,6.42Z"/><path class="cls-4" d="M340.69,27.76a25.61,25.61,0,0,0-10.83,2.43V16H315.54V52.75a25.55,25.55,0,0,0,.6,5.51,25.05,25.05,0,1,0,24.55-30.5Zm0,35.72a10.7,10.7,0,1,1,0-21.4h.23a10.7,10.7,0,0,1-.23,21.4Z"/><path class="cls-4" d="M397.88,27.83a25,25,0,1,0,24.95,25A25.08,25.08,0,0,0,397.88,27.83Zm0,35.72a10.7,10.7,0,1,1,0-21.4,10.7,10.7,0,0,1,0,21.4Z"/><polygon class="cls-4" points="458.25 53.18 475.36 29.56 458.71 29.56 450.11 42.35 441.54 29.56 424.95 29.56 441.97 53.81 424.62 77.8 440.9 77.8 450.11 64.91 459.34 77.8 475.69 77.8 458.25 53.18"/></g></g></svg>