<svg xmlns="http://www.w3.org/2000/svg" viewBox="0 0 471.69 90.73"><defs><style>.cls-1{fill:#fff;}</style></defs><g id="Capa_2" data-name="Capa 2"><g id="Capa_1-2" data-name="Capa 1"><path class="cls-1" d="M154.15,43.65c4.85-1.49,8.44-6.51,8.44-13.69,0-8.84-8.44-15.45-21.14-15.45H114.08V76.25h29.27C158.2,76.25,166,69.6,166,59.34,166,52.16,162.59,45.45,154.15,43.65ZM129.09,27.74h9.67c4.12,0,8.51,1.06,8.51,4.91,0,3.69-3.66,4.86-7.44,4.86H129.09ZM141.35,63H129.09V50.83h12.53c5.91,0,8.77,2.16,8.77,6.08C150.39,61.13,146.74,63,141.35,63Z"/><path class="cls-1" d="M187.31,53.16V14.45H173V53.52c0,13.06,9,22.73,21.83,22.73V61.56C190.26,61.56,187.31,58.07,187.31,53.16Z"/><path class="cls-1" d="M236.08,51.73c0,6.08-4.12,10.2-9.93,10.2s-10.1-4.12-10.1-10.2V26.94H201.73V51.73c0,14.05,10.66,24.52,24.42,24.52S250.4,65.78,250.4,51.73V26.94H236.08Z"/><path class="cls-1" d="M283.13,44.88a6.15,6.15,0,1,0,0,12.3h20.2c4.92-18.18-6.44-31.24-22.56-31.3-14.95,0-23.36,12.22-23.36,25.05,0,12.53,10,25.32,24.53,25.32,8.87,0,16.64-2.16,21.56-7.51L292.67,60.4c-1.33,1.89-6.25,3.12-9.47,3.12-15.78-.26-14.26-25.05-2-25.05,6.21,0,8.37,4.15,8,6.41Z"/><path class="cls-1" d="M336.69,26.21a25.76,25.76,0,0,0-10.83,2.42V14.48H311.54V51.19a25.64,25.64,0,0,0,.6,5.52,25.05,25.05,0,1,0,24.55-30.5Zm0,35.72a10.7,10.7,0,1,1,0-21.4h.23a10.7,10.7,0,0,1-.23,21.4Z"/><path class="cls-1" d="M393.88,26.28a25,25,0,1,0,24.95,24.95A25.07,25.07,0,0,0,393.88,26.28Zm0,35.71a10.7,10.7,0,1,1,0-21.39,10.7,10.7,0,0,1,0,21.39Z"/><polygon class="cls-1" points="454.25 51.63 471.36 28 454.71 28 446.11 40.8 437.54 28 420.95 28 437.97 52.26 420.62 76.25 436.9 76.25 446.11 63.36 455.34 76.25 471.69 76.25 454.25 51.63"/><path class="cls-1" d="M0,66.69l41.05,24V41.49L0,21ZM7.74,32.37l.51.27,8.5,4.58,16.49,8.87a.33.33,0,0,1,.18.3V78.22l-.5-.3-25-14.85L7.74,63Z"/><polygon class="cls-1" points="32.74 66.48 16.07 58.15 16.07 37.63 8.42 33.51 8.42 62.58 32.74 77.02 32.74 66.48"/><polygon class="cls-1" points="66.75 58.27 50.08 66.6 50.08 77.14 74.39 62.7 74.39 33.64 66.75 37.74 66.75 58.27"/><path class="cls-1" d="M41.4,0,.42,20.4l41,20.49h0L82.57,20.4ZM57,24.9,41.57,33.24a.3.3,0,0,1-.16,0,.37.37,0,0,1-.17,0L25.88,24.62l-7.8-4.38-.57-.32.59-.29L41.34,8.21l.15-.08,23.18,12,.58.3-.55.29Z"/><polygon class="cls-1" points="18.98 19.96 25.89 23.84 41.51 15.95 56.95 24.13 63.79 20.42 41.48 8.9 18.98 19.96"/><path class="cls-1" d="M41.75,41.49V90.73L83,66.69V21Zm33.32,21.6-.16.09L49.91,78h0l-.51.31V46.5a.33.33,0,0,1,.18-.3l16.49-8.86,8.5-4.58h0l.48-.26Z"/></g></g></svg>